<?xml version="1.0" encoding="UTF-8" standalone="no"?><!DOCTYPE svg PUBLIC "-//W3C//DTD SVG 1.1//EN" "http://www.w3.org/Graphics/SVG/1.1/DTD/svg11.dtd"><svg width="100%" height="100%" viewBox="0 0 420 423" version="1.1" xmlns="http://www.w3.org/2000/svg" xmlns:xlink="http://www.w3.org/1999/xlink" xml:space="preserve" xmlns:serif="http://www.serif.com/" style="fill-rule:evenodd;clip-rule:evenodd;"><rect id="light" x="0" y="0" width="420" height="422.614" style="fill:none;"/><clipPath id="_clip1"><rect x="0" y="0" width="420" height="422.614"/></clipPath><g clip-path="url(#_clip1)"><path d="M210.105,244.789l0,175.211m0,-420l0,175.21m17.395,64.918l87.605,151.737m-210,-363.731l87.605,151.737m47.523,47.523l151.737,87.605m-363.73,-210l151.737,87.606m64.917,17.394l175.211,0m-420,0l175.211,0m64.917,-17.394l151.737,-87.606m-363.73,210l151.737,-87.605m47.523,-47.523l87.605,-151.737m-210,363.731l87.605,-151.737m17.395,4.661c19.214,0 34.791,-15.577 34.791,-34.791c0,-19.211 -15.577,-34.788 -34.791,-34.788c-19.214,0 -34.791,15.577 -34.791,34.788c0,19.214 15.577,34.791 34.791,34.791Z" style="fill:none;fill-rule:nonzero;stroke:#fff;stroke-width:8px;"/></g></svg>