<?xml version="1.0" encoding="UTF-8" standalone="no"?><!DOCTYPE svg PUBLIC "-//W3C//DTD SVG 1.1//EN" "http://www.w3.org/Graphics/SVG/1.1/DTD/svg11.dtd"><svg width="100%" height="100%" viewBox="0 0 601 93" version="1.1" xmlns="http://www.w3.org/2000/svg" xmlns:xlink="http://www.w3.org/1999/xlink" xml:space="preserve" xmlns:serif="http://www.serif.com/" style="fill-rule:evenodd;clip-rule:evenodd;"><rect id="arrow" x="0" y="0" width="600.4" height="92.5" style="fill:none;"/><clipPath id="_clip1"><rect x="0" y="0" width="600.4" height="92.5"/></clipPath><g clip-path="url(#_clip1)"><path d="M549.618,2.614l44.331,43.636l-44.331,43.636m-549.018,-82.272c34.863,0 34.331,77.272 68.661,77.272c34.331,0 33.798,-77.272 68.661,-77.272c34.863,0 34.331,77.272 68.661,77.272c34.331,0 33.799,-77.272 68.661,-77.272c34.863,0 34.331,77.272 68.662,77.272c34.33,0 33.798,-77.272 68.661,-77.272c34.863,0 34.33,77.272 68.661,77.272c13.291,0 21.358,-11.583 28.275,-25.78c3.83,-7.86 11.803,-12.856 20.547,-12.856l63.899,0" style="fill:none;fill-rule:nonzero;stroke:#fff;stroke-width:8px;"/></g></svg>